<?xml version="1.0" standalone="no"?>
<!DOCTYPE svg PUBLIC "-//W3C//DTD SVG 20010904//EN"
 "http://www.w3.org/TR/2001/REC-SVG-20010904/DTD/svg10.dtd">
<svg version="1.0" xmlns="http://www.w3.org/2000/svg"
 width="512" height="512" viewBox="0 0 512 512"
 preserveAspectRatio="xMidYMid meet">

<g transform="translate(0,512) scale(0.1,-0.1)"
fill="#020e0e" stroke="none">
<path  d="M420 5109 c-30 -5 -92 -27 -136 -49 -104 -51 -190 -140 -243 -249
l-36 -76 0 -2176 0 -2176 42 -85 c72 -145 207 -251 362 -284 55 -11 397 -14
2131 -14 1339 0 2088 4 2130 10 202 32 382 204 426 409 11 55 14 397 14 2131
0 1339 -4 2088 -10 2130 -32 202 -204 382 -409 426 -55 11 -395 13 -2141 13
-1142 -1 -2100 -5 -2130 -10z m3895 -1964 c147 -42 232 -115 242 -209 8 -68
-11 -109 -80 -171 l-62 -55 56 -52 c78 -73 103 -125 104 -213 0 -57 -5 -81
-28 -127 -33 -67 -117 -148 -185 -179 -208 -93 -554 -45 -695 96 -60 60 -81
107 -81 180 0 75 26 128 88 179 25 20 46 41 46 46 0 5 -20 31 -43 59 -121 142
-76 325 101 415 48 24 132 51 187 60 77 12 261 -3 350 -29z m-931 -27 c14 -19
16 -70 16 -349 0 -251 3 -329 13 -337 7 -6 30 -12 52 -14 l40 -3 3 -122 3
-121 -38 -13 c-21 -6 -41 -17 -45 -23 -4 -6 -8 -46 -8 -88 0 -66 -3 -79 -19
-88 -26 -13 -316 -13 -342 0 -16 9 -19 22 -19 90 0 114 10 110 -235 110 -201
0 -204 0 -232 24 -26 23 -28 29 -27 98 2 118 12 135 278 453 169 202 285 326
334 357 46 29 109 47 164 47 38 1 50 -3 62 -21z m-2239 -62 c145 -38 220 -119
219 -238 -1 -91 -38 -154 -166 -281 -63 -63 -108 -116 -108 -128 0 -31 36 -59
75 -59 48 0 100 23 146 65 44 39 55 42 86 20 91 -64 17 -341 -103 -391 -47
-20 -51 -19 -95 26 l-40 40 -322 1 c-177 1 -333 4 -347 8 -16 4 -26 15 -28 30
-3 18 24 51 126 154 139 142 211 233 248 312 50 105 20 175 -74 175 -43 0 -57
-6 -108 -45 -62 -49 -94 -55 -134 -28 -74 51 -67 117 22 200 148 136 398 194
603 139z m1015 -9 c181 -75 296 -241 307 -442 9 -159 -30 -267 -133 -371 -112
-113 -263 -162 -415 -136 -98 17 -173 56 -244 127 -105 105 -145 209 -145 376
0 202 85 355 239 434 74 37 114 44 226 41 81 -2 112 -8 165 -29z"/>
<path d="M4040 3001 c-45 -45 -23 -93 69 -152 57 -37 93 -37 120 -3 47 60 11
152 -67 174 -62 17 -91 12 -122 -19z"/>
<path d="M3878 2508 c-48 -48 4 -179 91 -225 62 -33 149 -32 187 1 36 30 37
86 2 123 -25 27 -161 95 -221 112 -33 8 -41 7 -59 -11z"/>
<path d="M2984 2730 c-22 -9 -138 -144 -191 -224 -62 -90 -44 -106 121 -106
104 0 116 2 126 19 5 11 10 80 10 154 0 117 -2 136 -18 150 -21 19 -19 19 -48
7z"/>
<path d="M1923 2825 c-44 -31 -55 -139 -27 -272 30 -148 73 -223 125 -223 53
0 79 47 79 143 0 142 -43 301 -91 342 -35 29 -56 31 -86 10z"/>
</g>
</svg>
